<?xml version="1.0" encoding="UTF-8"?>
<svg id="Layer_2" data-name="Layer 2" xmlns="http://www.w3.org/2000/svg" viewBox="0 0 463.88 209.68">
  <defs>
    <style>
      .cls-1, .cls-2, .cls-3 {
        fill: #f7f7f7;
      }

      .cls-4 {
        fill: #0288b2;
      }

      .cls-5 {
        fill: #00b1c9;
      }

      .cls-6, .cls-7 {
        fill: #00848e;
      }

      .cls-8 {
        fill: #00939e;
      }

      .cls-9 {
        fill: #008184;
      }

      .cls-10 {
        fill: #6b251f;
      }

      .cls-11, .cls-12 {
        fill: #e9ffa4;
      }

      .cls-13, .cls-14, .cls-15 {
        fill: #fff;
      }

      .cls-16 {
        fill: #e2f7b2;
      }

      .cls-17 {
        fill: #e4f0f9;
      }

      .cls-18 {
        fill: #feb06d;
      }

      .cls-19 {
        fill: #738e02;
      }

      .cls-20 {
        fill: #98ba60;
      }

      .cls-21 {
        fill: #7f8b99;
      }

      .cls-22, .cls-23 {
        fill: #939caa;
      }

      .cls-24 {
        fill: #b7502c;
      }

      .cls-25 {
        fill: #b5bcc6;
      }

      .cls-26 {
        fill: #8c97a5;
      }

      .cls-27 {
        fill: #c2dd8e;
      }

      .cls-28 {
        fill: #91423c;
      }

      .cls-29 {
        fill: #86382e;
      }

      .cls-30, .cls-31 {
        fill: #ced3db;
      }

      .cls-32 {
        fill: #a4cf3a;
      }

      .cls-33 {
        fill: #ddbb8e;
      }

      .cls-34, .cls-35 {
        fill: #dd764d;
      }

      .cls-36, .cls-37 {
        fill: #253956;
      }

      .cls-38 {
        fill: #1b235c;
      }

      .cls-39 {
        fill: #354c70;
      }

      .cls-40 {
        fill: #88b206;
      }

      .cls-41 {
        fill: #6e7984;
      }

      .cls-42 {
        fill: #769103;
      }

      .cls-14 {
        opacity: .28;
      }

      .cls-14, .cls-2, .cls-23, .cls-43, .cls-31, .cls-12, .cls-15, .cls-3, .cls-35, .cls-7, .cls-37 {
        isolation: isolate;
      }

      .cls-2 {
        opacity: .65;
      }

      .cls-23 {
        opacity: .36;
      }

      .cls-43 {
        fill: #6c8431;
      }

      .cls-43, .cls-31 {
        opacity: .52;
      }

      .cls-12 {
        opacity: .59;
      }

      .cls-15 {
        opacity: .58;
      }

      .cls-3, .cls-35 {
        opacity: .44;
      }

      .cls-7 {
        opacity: .4;
      }

      .cls-37 {
        opacity: .47;
      }

      .cls-44 {
        fill: none;
        stroke: #103349;
        stroke-miterlimit: 10;
        stroke-width: 1.06px;
      }

      .cls-45 {
        opacity: .45;
      }

      .cls-46 {
        opacity: .39;
      }
    </style>
  </defs>
  <g id="Layer_1-2" data-name="Layer 1">
    <g>
      <path class="cls-19" d="M403,164.78h16.51c18.35,0,33.23,14.88,33.23,33.23h-49.74v-33.23h0Z"/>
      <path class="cls-40" d="M438.8,162.75h0c.68,.33,.97,1.15,.64,1.83,0,0,0,.02-.01,.03l-3.68,7.79h0l-2.47-1.17h0l3.68-7.79c.3-.69,1.11-1.01,1.8-.71,.01,0,.02,.01,.04,.02Z"/>
      <path class="cls-40" d="M440.24,167.7h0c.42,.2,.6,.7,.4,1.12l-2.26,4.79h0l-1.52-.72h0l2.26-4.79c.2-.42,.7-.6,1.12-.4Z"/>
      <path class="cls-42" d="M437.93,167.53h0c.36,.17,.51,.6,.34,.96h0l-1.95,4.13h0l-1.31-.62h0l1.95-4.13c.17-.36,.6-.51,.96-.34,0,0,0,0,0,0Z"/>
      <path class="cls-42" d="M433.61,165.49h0c.36,.17,.51,.6,.34,.96h0l-1.95,4.13h0l-1.31-.62h0l1.95-4.13c.17-.36,.6-.51,.96-.34,0,0,0,0,0,0Z"/>
      <path class="cls-11" d="M421.77,158.2h0c.67,0,1.2,.55,1.2,1.22l-.08,7.62h0l-2.41-.02h0l.08-7.62c0-.66,.55-1.2,1.21-1.2Z"/>
      <path class="cls-11" d="M424.75,161.64h0c.41,0,.74,.34,.73,.75l-.05,4.68h0l-1.47-.02h0l.05-4.68c0-.41,.34-.74,.75-.73h0Z"/>
      <path class="cls-42" d="M422.83,162.36h0c.35,0,.64,.29,.63,.65h0s-.04,4-.04,4h-1.28s.04-4.01,.04-4.01c0-.35,.29-.64,.65-.63h0Z"/>
      <path class="cls-42" d="M418.6,162.32h0c.35,0,.64,.29,.63,.65h0s-.04,4-.04,4h-1.28s.04-4.01,.04-4.01c0-.35,.29-.64,.65-.63h0Z"/>
      <circle class="cls-17" cx="452.4" cy="1.69" r="1.69"/>
      <path class="cls-40" d="M353.86,163.63l24.14-5.64c13-3,26.94,0,36.24,7.87l25.68,21.68h-75.23l-10.83-23.91Z"/>
      <path class="cls-11" d="M423.41,176.67h0c.76,0,1.36,.63,1.36,1.38l-.09,8.62h0l-2.73-.03h0l.09-8.62c0-.75,.62-1.36,1.37-1.36Z"/>
      <path class="cls-11" d="M426.79,180.55h0c.46,0,.84,.38,.83,.85l-.05,5.33h0l-1.68-.02h0l.05-5.3c-.01-.46,.35-.85,.82-.86,.01,0,.02,0,.03,0Z"/>
      <path class="cls-42" d="M424.62,181.37h0c.4,0,.72,.33,.71,.73h0l-.05,4.63h-1.45s.05-4.58,.05-4.58c-.03-.4,.27-.74,.67-.77,.02,0,.05,0,.07,0Z"/>
      <path class="cls-42" d="M419.83,181.32h0c.4,0,.72,.33,.71,.73h0l-.05,4.57h-1.45s.05-4.58,.05-4.58c0-.4,.33-.72,.73-.71,0,0,0,0,.01,0Z"/>
      <path class="cls-17" d="M107.35,83.11h-1.18c-.74-3.68-4.32-6.06-8-5.32-.6,.12-1.18,.32-1.72,.6-3.35-5.11-10.2-6.54-15.31-3.19-.28,.18-.55,.38-.81,.58-4.79-6.19-13.7-7.33-19.89-2.54-3.1,2.4-5.07,5.97-5.44,9.87h-.16c-1.29,0-2.33,1.04-2.33,2.33h0c0,1.29,1.03,2.33,2.32,2.34,0,0,0,0,.01,0h52.52c1.29,0,2.33-1.04,2.33-2.33,0,0,0,0,0-.01h0c0-1.29-1.04-2.33-2.33-2.33,0,0,0,0-.01,0Z"/>
      <path class="cls-40" d="M15.12,195.77H456.92c3.84,0,6.96,3.11,6.96,6.96h0c0,3.84-3.12,6.96-6.96,6.96H15.12c-3.84,0-6.96-3.11-6.96-6.96h0c0-3.84,3.12-6.96,6.96-6.96Z"/>
      <g class="cls-46">
        <path class="cls-25" d="M88.48,72.41c-.14,.42-.57,.66-1,.57-2.93-.41-5.83-.98-8.69-1.71-3.89-.99-7.72-2.18-11.49-3.57-3.78-1.38-7.49-2.96-11.1-4.74-3.7-1.75-7.23-3.85-10.54-6.26l42.82,15.71Z"/>
        <path class="cls-30" d="M88.48,72.41l-42.82-15.71c4.09,.29,8.14,.96,12.11,2,7.81,1.99,15.39,4.78,22.63,8.32,2.65,1.3,5.23,2.75,7.73,4.33,.35,.22,.5,.67,.35,1.06Z"/>
        <path class="cls-25" d="M0,56.48c0,.42,.28,.78,.69,.87,2.89,.6,5.81,1.06,8.75,1.35,4.01,.42,8.04,.63,12.07,.62,4.02,.01,8.05-.19,12.05-.61,4.08-.39,8.12-1.15,12.06-2.27L0,56.48Z"/>
        <path class="cls-30" d="M0,56.48H45.62c-3.94-1.13-7.98-1.89-12.06-2.28-3.99-.42-7.99-.62-12-.61-4.03,0-8.06,.2-12.07,.62-2.96,.31-5.89,.77-8.8,1.39-.41,.09-.7,.46-.69,.88Z"/>
        <path class="cls-25" d="M58.11,12.7c-.39-.11-.81,.06-1,.42-1.4,2.6-2.66,5.27-3.77,8-1.51,3.73-2.83,7.54-3.94,11.41-1.14,3.87-2.06,7.79-2.76,11.76-.77,4.03-1.16,8.11-1.17,12.21L58.11,12.7Z"/>
        <path class="cls-30" d="M58.11,12.7l-12.67,43.86c2.18-3.49,4.03-7.17,5.53-11,1.52-3.71,2.83-7.51,3.94-11.36,1.13-3.87,2.05-7.79,2.75-11.76,.53-2.91,.89-5.85,1.1-8.8,.05-.43-.23-.83-.65-.94Z"/>
        <polygon class="cls-25" points="49.14 174.83 45.47 174.83 45.47 56.73 47.69 56.73 49.14 174.83"/>
        <polygon class="cls-30" points="45.47 56.73 45.47 174.83 41.8 174.83 43.24 56.73 45.47 56.73"/>
        <circle class="cls-30" cx="45.47" cy="56.53" r="4.05"/>
        <path class="cls-21" d="M47.76,61.9c-1.38,.96-3.2,.96-4.58,0v-2c1.36,.93,3.16,.93,4.52,0l.06,2Z"/>
        <circle class="cls-26" cx="45.47" cy="56.53" r="2.41"/>
        <circle class="cls-41" cx="45.47" cy="56.53" r="1.81"/>
        <rect class="cls-21" x="46.67" y="73.57" width=".7" height="4.87" rx=".35" ry=".35" transform="translate(-.67 .42) rotate(-.51)"/>
        <rect class="cls-21" x="46.07" y="138.03" width=".7" height="4.87" rx=".35" ry=".35" transform="translate(-1.25 .42) rotate(-.51)"/>
        <rect class="cls-14" x="40.99" y="115.19" width="4.87" height=".7" rx=".35" ry=".35" transform="translate(-72.51 157.93) rotate(-89.49)"/>
        <rect class="cls-14" x="41.73" y="127.98" width="4.87" height=".7" rx=".35" ry=".35" transform="translate(-84.55 171.35) rotate(-89.49)"/>
        <rect class="cls-14" x="41.93" y="66.98" width="4.87" height=".7" rx=".35" ry=".35" transform="translate(-23.37 111.09) rotate(-89.49)"/>
        <rect class="cls-14" x="41.93" y="151.58" width="4.87" height=".7" rx=".35" ry=".35" transform="translate(-107.95 194.94) rotate(-89.49)"/>
        <rect class="cls-14" x="40.5" y="170.13" width="4.87" height=".7" rx=".35" ry=".35" transform="translate(-127.92 211.9) rotate(-89.49)"/>
        <rect class="cls-14" x="42.07" y="83.3" width="4.87" height=".7" rx=".35" ry=".35" transform="translate(-39.54 127.41) rotate(-89.49)"/>
        <rect class="cls-21" x="47.81" y="168.61" width=".7" height="4.87" rx=".35" ry=".35" transform="translate(-1.52 .44) rotate(-.51)"/>
        <path class="cls-15" d="M14.17,54.24c-.19,0-.35-.16-.36-.35,0-.2,.15-.37,.35-.38,.08,0,7.29-.21,12.67-.1,.2,0,.36,.17,.35,.37,0,0,0,0,0,0,0,.19-.15,.35-.34,.36,0,0-.01,0-.02,0-5.37-.12-12.56,.09-12.63,.1h-.02Z"/>
      </g>
      <path class="cls-40" d="M88.29,163.37l-17.62-4.11c-9.46-2.21-19.67,0-26.46,5.75l-18.75,15.83h54.92l7.91-17.47Z"/>
      <path class="cls-32" d="M105.82,158.7l-18-5.22c-9.66-2.8-20.07,0-27,7.29l-19.1,20.07h56l8.1-22.14Z"/>
      <path class="cls-28" d="M58.32,126.84c.92,7,3.08,10.46,4.66,12.07v-.46c0-1.66,1.34-3,3-3,.05,0,.09-.04,.1-.09v-8.31h2.92v8.31c0,1.66-1.34,3-3,3-.06,0-.1,.04-.1,.1h0v9.54c0,.05,.05,.09,.1,.09h3.11c1.66,0,3,1.34,3,3v8.16h-2.9v-8.15c0-.05-.05-.1-.1-.1h-3.11c-1.66,0-3-1.34-3-3v-5.38c-1.07-.63-2.02-1.46-2.8-2.43-2.41-2.91-4-7.27-4.75-13l2.87-.35Z"/>
      <path class="cls-40" d="M47.3,109.26c-1.55,0-2.81-1.26-2.81-2.81v-5.54c0-1.55,1.24-2.8,2.79-2.81,0,0,.01,0,.02,0h15c3.39,0,6.59,1.55,8.7,4.2,2.3,2.99,5.84,4.77,9.61,4.83h.39c1.09,.03,1.97,.91,2,2v16.73c0,1.1-.9,2-2,2h-30.09c-1.1,0-2-.9-2-2v-.15c0-1.18-.95-2.13-2.13-2.14h0c-1.19,0-2.16-.97-2.17-2.16v-8.49c0-1.2,.97-2.17,2.17-2.17h1.35c.43,0,.77-.33,.78-.76,0,0,0,0,0-.01h0c0-.43-.35-.77-.78-.77l-.83,.05Z"/>
      <path class="cls-32" d="M54.74,109.26c-1.55,0-2.81-1.26-2.81-2.81v-5.54c0-1.55,1.26-2.81,2.81-2.81h15c3.4,0,6.61,1.54,8.72,4.2,2.3,2.99,5.84,4.77,9.61,4.83h.43c1.09,.03,1.97,.91,2,2v16.73c0,1.1-.9,2-2,2h-30.15c-1.1,0-2-.9-2-2v-.15c0-1.18-.94-2.13-2.12-2.14,0,0,0,0-.01,0h0c-1.19,.03-2.19-.92-2.22-2.11v-8.49c0-1.2,.97-2.17,2.17-2.17h1.36c.43,0,.77-.34,.77-.77h0c0-.42-.35-.76-.77-.77h-.79Z"/>
      <circle class="cls-11" cx="56.26" cy="121.59" r="1.4"/>
      <circle class="cls-11" cx="62.86" cy="117.25" r=".38"/>
      <circle class="cls-11" cx="71.71" cy="118.54" r=".49"/>
      <circle class="cls-11" cx="75.16" cy="122.84" r=".77"/>
      <circle class="cls-11" cx="63.86" cy="122.33" r=".81"/>
      <circle class="cls-11" cx="49.3" cy="113.15" r=".74"/>
      <path class="cls-11" d="M69.72,98.83h-10.64c-.4,0-.73-.33-.73-.73,0-.4,.33-.73,.73-.73h10.64c.4,0,.73,.33,.73,.73,0,.4-.33,.73-.73,.73Z"/>
      <rect class="cls-10" x="63.69" y="142.4" width=".18" height="3.14"/>
      <rect class="cls-10" x="69.87" y="150.29" width=".18" height="3.14"/>
      <rect class="cls-10" x="64.55" y="137.76" width=".18" height="3.14"/>
      <rect class="cls-10" x="67.76" y="129.49" width=".18" height="3.14"/>
      <rect class="cls-10" x="64.87" y="141.68" width=".18" height="1.34"/>
      <rect class="cls-10" x="64.48" y="143.87" width=".18" height="3.14"/>
      <rect class="cls-10" x="67.24" y="131.29" width=".18" height="1.34"/>
      <rect class="cls-10" x="66.85" y="133.47" width=".18" height="3.14"/>
      <rect class="cls-10" x="71.33" y="152.1" width=".18" height="1.34"/>
      <rect class="cls-10" x="70.94" y="154.28" width=".18" height="3.14"/>
      <rect class="cls-10" x="66.09" y="127.96" width="2.92" height="1.53"/>
      <path class="cls-40" d="M68.95,180.87h-2.26v-7c0-.61,.5-1.11,1.11-1.11h0c.61-.02,1.13,.46,1.15,1.07,0,.01,0,.03,0,.04v7h0Z"/>
      <path class="cls-42" d="M75.59,175.54h-2.22v-7c0-.61,.5-1.11,1.11-1.11h0c.61,0,1.11,.5,1.11,1.11h0v7h0Z"/>
      <path class="cls-40" d="M66.09,180.84h-3.61v-11.39c0-.99,.81-1.8,1.8-1.8h0c.99,0,1.8,.81,1.8,1.8h0v11.39h0Z"/>
      <path class="cls-40" d="M60.89,180.87h-2.22v-7c0-.61,.5-1.11,1.11-1.11h0c.61,0,1.11,.5,1.11,1.11h0v7h0Z"/>
      <path class="cls-42" d="M63.59,180.84h-1.91v-6c0-.55,.45-1,1-1h0c.55,0,1,.45,1,1v6h-.09Z"/>
      <path class="cls-42" d="M69.91,180.84h-1.91v-6c0-.55,.45-1,1-1h0c.55,0,1,.45,1,1v6h-.09Z"/>
      <path class="cls-40" d="M65.54,161.51l-1.81,.85h0l-2.69-5.7c-.24-.5-.02-1.1,.48-1.33h0c.5-.24,1.1-.02,1.33,.48l2.69,5.7h0Z"/>
      <path class="cls-40" d="M62.96,162.77l-1.08,.51h0l-1.65-3.5c-.14-.3-.01-.67,.29-.81h0c.3-.14,.67-.01,.81,.29h0l1.65,3.5h-.03Z"/>
      <path class="cls-42" d="M64.27,162.06l-.96,.45h0l-1.43-3.02c-.12-.26-.01-.58,.25-.71h0c.26-.12,.58-.01,.71,.25,0,0,1.43,3.02,1.43,3.02Z"/>
      <path class="cls-42" d="M67.46,160.6l-.96,.45h0l-1.43-3.02c-.12-.26-.01-.58,.25-.71h0c.26-.12,.58-.01,.71,.25l1.43,3.02h0Z"/>
      <path class="cls-40" d="M54.77,134.16c-1.23,1.37-.74,3.81-.74,3.81,0,0,2.48,.24,3.72-1.13s.74-3.81,.74-3.81c0,0-2.49-.23-3.72,1.13Z"/>
      <path class="cls-32" d="M69.55,131.7c-1.24,1.36-.75,3.81-.75,3.81,0,0,2.49,.23,3.72-1.13s.74-3.81,.74-3.81c0,0-2.48-.26-3.71,1.13Z"/>
      <path class="cls-40" d="M40.08,129.38c-.53,.79-.71,1.76-.52,2.69,.94,.1,1.89-.19,2.62-.79,.53-.79,.71-1.76,.52-2.69-.94-.1-1.89,.19-2.62,.79Z"/>
      <path class="cls-32" d="M44.94,135.47c.59,.74,1.46,1.21,2.4,1.31,.37-.88,.37-1.86,0-2.74-.57-.74-1.41-1.22-2.34-1.34-.4,.88-.42,1.88-.06,2.77Z"/>
      <path class="cls-32" d="M48.82,148.89c.6,.74,1.47,1.21,2.41,1.31,.36-.88,.36-1.86,0-2.74-.6-.74-1.46-1.21-2.41-1.31-.37,.88-.37,1.86,0,2.74Z"/>
      <path class="cls-32" d="M41.55,149.75c.6,.75,1.49,1.22,2.45,1.31,.36-.88,.36-1.86,0-2.74-.6-.74-1.46-1.21-2.41-1.31-.38,.87-.4,1.86-.04,2.74Z"/>
      <path class="cls-11" d="M49.45,143.76c.91,.27,1.89,.16,2.72-.3-.19-.93-.74-1.75-1.54-2.26-.91-.27-1.89-.17-2.72,.29,.19,.93,.74,1.75,1.54,2.27Z"/>
      <path class="cls-11" d="M53.34,153.15c.91,.27,1.9,.16,2.73-.3-.19-.93-.75-1.75-1.54-2.27-.91-.27-1.9-.16-2.73,.3,.19,.93,.75,1.75,1.54,2.27Z"/>
      <path class="cls-20" d="M218.5,155.8c12.49,.89,24.89-8.6,27.28-20.89,.44-2.26,0-5.36-2.24-5.77-.55-.02-1.09-.09-1.63-.2-1.48-.55-1.33-2.7-.73-4.16s1.33-3.29,.27-4.45c-.76-.84-2.14-.9-2.83-1.79-1.14-1.5,.64-3.57,.48-5.45-.18-2.31-3.1-3.44-3.81-5.63-.45-1.38,.06-2.89-.21-4.31-.31-1.6-1.55-2.83-2.46-4.17-1.79-2.63-2.42-5.88-3.92-8.68s-4.53-5.31-7.6-4.5c-2.66,.7-4.11,3.48-5.25,6l-12.85,28.27c-1.04,2.07-1.83,4.27-2.35,6.53-1,5.39,1.16,11,4.55,15.27s7.92,7.54,12.38,10.71"/>
      <path class="cls-16" d="M221.12,156.88c-.58,0-1.05-.47-1.05-1.05s.47-1.05,1.05-1.05h0c9.08-.13,15.67-6.54,15.73-6.6,.41-.41,1.08-.41,1.49,0s.41,1.08,0,1.49c-.3,.29-7.24,7.08-17.19,7.21h-.03Z"/>
      <path class="cls-27" d="M246.09,136c.47-2.66,.08-6.62-3.25-7.09-1.05-.15-1.75-.09-1.74-1.35,.1-.89,.35-1.76,.74-2.56,.58-1.57,.84-3.43-.47-4.71-.61-.48-1.28-.86-2-1.14-1.08-.58-.77-1.45-.46-2.43,.49-1.56,.85-3.07,0-4.58-.75-1.35-2.13-2.18-3-3.46-.48-.92-.64-1.98-.47-3,.08-1.04-.07-2.09-.45-3.07-.82-1.94-2.42-3.43-3.32-5.35-1-2.19-1.69-4.54-2.81-6.69-.63-1.21-2.45-.14-1.82,1.06,.94,1.81,1.55,3.75,2.34,5.63,.8,1.73,1.78,3.37,2.93,4.88,.59,.77,.93,1.7,1,2.67-.07,1.03-.07,2.06,0,3.09,.39,1.48,1.23,2.79,2.41,3.76,.54,.47,.99,1.03,1.33,1.65,.25,.82,.19,1.71-.18,2.49-.45,1.42-.89,3,.19,4.28,.54,.54,1.19,.96,1.91,1.22,1.13,.54,1.3,1.21,1,2.39-.44,1.56-1.24,2.91-1,4.59,.07,.73,.4,1.41,.93,1.92,.72,.5,1.58,.76,2.45,.74,1.94,.31,1.89,3,1.63,4.48-.23,1.33,1.8,1.9,2,.56l.11,.02Z"/>
      <rect class="cls-30" x="65.11" y="174.85" width="101.47" height="5.89"/>
      <rect class="cls-18" x="122.08" y="105.11" width="99.88" height="69.74"/>
      <rect class="cls-35" x="122.08" y="170.71" width="99.88" height="4.14"/>
      <polygon class="cls-39" points="203.26 63.01 185.5 84.06 173.34 105.11 197.65 105.11 227.57 105.11 215.42 84.06 203.26 63.01"/>
      <polyline class="cls-39" points="203.26 63.01 97.77 63.01 97.77 105.11 186.39 105.11"/>
      <rect class="cls-34" x="69.25" y="105.11" width="52.83" height="69.74"/>
      <rect class="cls-34" x="122.08" y="105.12" width="99.88" height="4.01"/>
      <rect class="cls-13" x="193" y="142.88" width="18.49" height="20.35"/>
      <rect class="cls-13" x="162.78" y="142.88" width="18.49" height="20.35"/>
      <rect class="cls-13" x="132.56" y="142.88" width="18.49" height="20.35"/>
      <rect class="cls-13" x="162.78" y="116.72" width="18.49" height="20.35"/>
      <rect class="cls-13" x="193" y="116.72" width="18.49" height="20.35"/>
      <rect class="cls-4" x="197.92" y="119.97" width="8.65" height="6.93"/>
      <rect class="cls-5" x="197.92" y="126.91" width="8.65" height="6.93"/>
      <rect class="cls-4" x="197.92" y="146.13" width="8.65" height="6.93"/>
      <rect class="cls-5" x="197.92" y="153.07" width="8.65" height="6.93"/>
      <rect class="cls-4" x="167.7" y="146.13" width="8.65" height="6.93"/>
      <rect class="cls-5" x="167.7" y="153.07" width="8.65" height="6.93"/>
      <rect class="cls-4" x="137.48" y="146.13" width="8.65" height="6.93"/>
      <rect class="cls-5" x="137.48" y="153.07" width="8.65" height="6.93"/>
      <rect class="cls-4" x="167.7" y="119.97" width="8.65" height="6.93"/>
      <rect class="cls-5" x="167.7" y="126.91" width="8.65" height="6.93"/>
      <rect class="cls-13" x="132.56" y="116.72" width="18.49" height="20.35"/>
      <rect class="cls-4" x="137.48" y="119.97" width="8.65" height="6.93"/>
      <rect class="cls-5" x="137.48" y="126.91" width="8.65" height="6.93"/>
      <polygon class="cls-34" points="94.17 63.01 80.21 84.41 69.77 105.81 94.17 105.81 122.08 105.81 108.12 84.41 94.17 63.01"/>
      <polygon class="cls-36" points="97.77 63.01 122.08 105.11 116.65 105.11 92.98 63.01 97.77 63.01"/>
      <polygon class="cls-36" points="92.98 63.01 66.57 105.11 72 105.11 97.77 63.01 92.98 63.01"/>
      <rect class="cls-1" x="130.77" y="174.85" width="94.18" height="3.26"/>
      <polyline class="cls-36" points="199.27 71.12 174.12 71.12 190.02 94.27 195.5 94.27"/>
      <polygon class="cls-13" points="190.02 94.27 208.51 94.27 208.51 82.34 199.27 71.12 190.02 82.34 190.02 94.27"/>
      <path class="cls-4" d="M203.59,85.3h-8.65v-2.61c0-2.39,1.94-4.33,4.33-4.33h0c2.39,0,4.33,1.94,4.33,4.33h0v2.61h-.01Z"/>
      <rect class="cls-5" x="194.94" y="85.3" width="8.65" height="6.93"/>
      <polyline class="cls-36" points="169.64 71.12 145.2 71.12 160.4 94.27 165.88 94.27"/>
      <polygon class="cls-13" points="160.4 94.27 178.89 94.27 178.89 82.34 169.64 71.12 160.4 82.34 160.4 94.27"/>
      <path class="cls-4" d="M173.97,85.3h-8.68v-2.61c0-2.39,1.94-4.33,4.33-4.33h0c2.39,0,4.33,1.94,4.33,4.33h0v2.61h.02Z"/>
      <rect class="cls-5" x="165.32" y="85.3" width="8.65" height="6.93"/>
      <polyline class="cls-36" points="140.02 71.12 116.28 71.12 130.78 94.27 136.26 94.27"/>
      <polygon class="cls-13" points="130.78 94.27 149.27 94.27 149.27 82.34 140.02 71.12 130.78 82.34 130.78 94.27"/>
      <path class="cls-4" d="M144.34,85.3h-8.65v-2.61c0-2.39,1.94-4.33,4.33-4.33,0,0,.01,0,.02,0h0c2.39,0,4.33,1.94,4.33,4.33h0v2.61h-.03Z"/>
      <rect class="cls-5" x="135.69" y="85.3" width="8.65" height="6.93"/>
      <polygon class="cls-38" points="225.31 133.53 227.29 174.85 224.96 174.85 223.87 174.85 223.87 133.53 225.31 133.53"/>
      <polygon class="cls-38" points="230.46 136.71 225.59 142.16 225.66 145.13 230.46 138.69 230.46 136.71"/>
      <polygon class="cls-38" points="233.27 145.03 225.59 151.18 225.66 154.16 233.27 146.31 233.27 145.03"/>
      <circle class="cls-27" cx="227.71" cy="120.96" r="1.72"/>
      <circle class="cls-27" cx="236.71" cy="124.59" r=".46"/>
      <circle class="cls-27" cx="241.59" cy="134.43" r=".6"/>
      <circle class="cls-27" cx="239.67" cy="140.92" r=".94"/>
      <circle class="cls-27" cx="232.28" cy="129.15" r=".99"/>
      <circle class="cls-27" cx="231.37" cy="108.03" r=".91"/>
      <circle class="cls-13" cx="317.34" cy="14.71" r="1.81"/>
      <circle class="cls-33" cx="335.43" cy="60.83" r="2.25"/>
      <circle class="cls-33" cx="320.86" cy="27.95" r="2.37"/>
      <path class="cls-32" d="M329.85,157.21l24.63-7.15c13.23-3.85,27.51,.01,37,10l26.19,27.5h-76.76l-11.06-30.35Z"/>
      <path class="cls-28" d="M394.9,113.59c-1.26,9.64-4.21,14.32-6.38,16.54v-.64c0-2.28-1.85-4.12-4.13-4.13-.07,0-.13-.06-.13-.13h0v-11.38h-4v11.38c0,2.28,1.85,4.12,4.13,4.13,.07,0,.13,.06,.13,.13h0v13.06c0,.07-.06,.13-.13,.13h-4.27c-2.28,0-4.12,1.85-4.13,4.13v11.18h4v-11.18c0-.07,.06-.13,.13-.13h4.27c2.28,0,4.12-1.85,4.13-4.13v-7.37c1.48-.86,2.78-1.98,3.84-3.32,3.3-4,5.49-10,6.51-17.75l-3.97-.52Z"/>
      <path class="cls-40" d="M410,89.51c2.13,0,3.85-1.72,3.85-3.85h0v-7.59c0-2.13-1.72-3.85-3.85-3.85h-20.51c-4.65,0-9.05,2.12-11.95,5.76-3.14,4.1-7.99,6.54-13.16,6.62h-.58c-1.55,0-2.8,1.25-2.8,2.8v22.91c0,1.55,1.25,2.8,2.8,2.8h41.25c1.55,0,2.8-1.25,2.8-2.8v-.21c0-1.61,1.3-2.91,2.91-2.91,0,0,0,0,.01,0h0c1.66,0,3-1.34,3-3v-11.59c0-1.66-1.34-3-3-3h-1.86c-.58,0-1.05-.48-1.06-1.06h0c0-.58,.48-1.05,1.06-1.06l1.09,.03Z"/>
      <path class="cls-32" d="M399.81,89.51c2.13,0,3.85-1.72,3.85-3.85h0v-7.59c0-2.12-1.73-3.84-3.85-3.85h-20.52c-4.67-.02-9.09,2.1-12,5.76-3.14,4.1-7.98,6.54-13.15,6.62h-.59c-1.55,0-2.8,1.25-2.8,2.8v22.91c0,1.55,1.25,2.8,2.8,2.8h41.26c1.55,0,2.8-1.25,2.8-2.8v-.21c0-1.61,1.3-2.91,2.91-2.91h0c1.66,0,3-1.34,3-3v-11.59c0-1.66-1.34-3-3-3h-1.86c-.56-.03-1-.5-1-1.06h0c0-.56,.44-1.03,1-1.06l1.15,.03Z"/>
      <path class="cls-32" d="M157.22,153.24c-17.8,1.28-35.47-12.26-38.87-29.77-.63-3.23,0-7.63,3.18-8.22,.78-.03,1.56-.13,2.33-.29,2.11-.78,1.9-3.85,1-5.93s-1.9-4.68-.38-6.35c1.08-1.18,3-1.27,4-2.54,1.64-2.14-.9-5.09-.68-7.77,.27-3.28,4.42-4.9,5.44-8,.63-2-.09-4.12,.3-6.14,.44-2.27,2.19-4,3.5-5.94,2.55-3.75,3.45-8.37,5.59-12.37s6.45-7.56,10.83-6.41c3.79,1,5.86,5,7.47,8.52l18.3,40.32c1.49,2.96,2.62,6.08,3.36,9.31,1.43,7.67-1.65,15.64-6.49,21.76s-11.23,10.71-17.59,15.28"/>
      <rect class="cls-43" x="148.56" y="126.27" width="4" height="14.13"/>
      <path class="cls-11" d="M153.48,154.78h0c-14.18-.19-24.08-9.87-24.49-10.28-.57-.6-.54-1.55,.06-2.12,.57-.54,1.47-.54,2.05,0,.09,.1,9.48,9.24,22.42,9.41,.83,.02,1.49,.7,1.48,1.53-.01,.82-.69,1.48-1.51,1.47,0,0,0,0-.01,0Z"/>
      <polygon class="cls-29" points="155.23 146.21 149.28 153.96 149.38 158.21 155.23 149.03 155.23 146.21"/>
      <polygon class="cls-29" points="155.23 133.08 149.28 140.84 149.38 145.08 155.23 135.9 155.23 133.08"/>
      <rect class="cls-43" x="148.56" y="83.86" width="4" height="33.13"/>
      <path class="cls-11" d="M119.79,124.23c-.31-1.74-.41-4.33,.9-5.73,.76-.8,1.81-.61,2.81-.77,1.19-.15,2.25-.84,2.86-1.87,1.1-1.87,.67-4.32-.08-6.23-.52-1.09-.86-2.26-1-3.46,0-1.31,.87-1.72,1.93-2.2,2.34-1.05,3.75-2.76,3.31-5.44-.36-2.16-1.92-4.37-.52-6.44,1.18-1.73,3-2.9,4.11-4.72,.63-1.09,.97-2.32,1-3.58,.06-1.59-.35-3.22,.17-4.76,.61-1.42,1.45-2.74,2.47-3.9,.9-1.22,1.68-2.53,2.33-3.9,1.44-3.09,2.36-6.39,3.94-9.42,.9-1.7-1.69-3.22-2.59-1.51-1.45,2.78-2.36,5.77-3.59,8.64-.55,1.3-1.22,2.55-2,3.73-.8,1.18-1.75,2.26-2.49,3.48-.71,1.1-1.17,2.35-1.35,3.65-.17,1.62,.28,3.29-.06,4.89-.47,2.17-2.81,3.58-4.12,5.25-1.49,1.91-1.87,4.46-1,6.72,.28,.94,1,2.2,.72,3.21s-1.66,1.35-2.51,1.78c-2.52,1.25-3.2,3.72-2.55,6.33,.41,1.62,2.42,4.68,1.25,6.37-.35,.5-.89,.44-1.45,.48-.68,.03-1.36,.16-2,.39-1.12,.46-2.05,1.29-2.63,2.35-1.1,2.33-1.38,4.96-.79,7.46,.34,1.9,3.24,1.09,2.89-.8h.04Z"/>
      <rect class="cls-30" x="231.22" y="180.39" width="144.62" height="7.15"/>
      <rect class="cls-18" x="152.29" y="81" width="142.35" height="99.39"/>
      <polygon class="cls-39" points="178.94 21 204.26 51 221.58 81 186.94 81 141.29 81 159.61 51 178.94 21"/>
      <polyline class="cls-39" points="178.94 21 329.28 21 329.28 81 202.99 81"/>
      <polygon class="cls-34" points="369.57 180.39 294.29 180.39 294.48 81 369.57 80.72 369.57 180.39"/>
      <rect class="cls-34" x="152.29" y="81" width="142.35" height="5.72"/>
      <rect class="cls-13" x="306.9" y="134.84" width="20.95" height="29"/>
      <polygon class="cls-34" points="334.41 21 354.3 51.5 369.19 82 334.41 82 294.64 82 314.53 51.5 334.41 21"/>
      <rect class="cls-1" x="14.1" y="180.39" width="268.14" height="7.15"/>
      <polyline class="cls-36" points="184.63 32.55 220.47 32.55 197.81 65.55 190 65.55"/>
      <polygon class="cls-18" points="197.81 65.55 171.46 65.55 171.46 48.55 184.63 32.55 197.81 48.55 197.81 65.55"/>
      <path class="cls-5" d="M190.8,49.05v13.65h-12.33v-13.65c.14-3.4,3.01-6.05,6.41-5.92,3.21,.13,5.79,2.7,5.92,5.92Z"/>
      <polyline class="cls-36" points="226.85 32.55 261.68 32.55 240.03 65.55 232.22 65.55"/>
      <polygon class="cls-18" points="240.03 65.55 213.67 65.55 213.67 48.55 226.85 32.55 240.03 48.55 240.03 65.55"/>
      <path class="cls-5" d="M233,49.05v13.65h-12.31v-13.65c0-3.4,2.76-6.16,6.16-6.16s6.16,2.76,6.16,6.16h-.01Z"/>
      <polyline class="cls-36" points="269.06 32.55 302.9 32.55 282.24 65.55 274.43 65.55"/>
      <polygon class="cls-18" points="282.24 65.55 255.89 65.55 255.89 48.55 269.06 32.55 282.24 48.55 282.24 65.55"/>
      <path class="cls-5" d="M275.23,49.05v13.65h-12.33v-13.65c-.14-3.4,2.51-6.28,5.92-6.41,3.4-.14,6.28,2.51,6.41,5.92,0,.17,0,.33,0,.5h0Z"/>
      <polygon class="cls-29" points="147.52 121.5 144.69 180.39 148.02 180.39 149.56 180.39 149.56 121.5 147.52 121.5"/>
      <polygon class="cls-29" points="141.18 126.04 147.13 133.8 147.02 138.04 141.18 128.86 141.18 126.04"/>
      <polygon class="cls-29" points="136.18 137.9 147.13 146.66 147.02 150.9 136.18 139.72 136.18 137.9"/>
      <circle class="cls-11" cx="144.1" cy="103.59" r="2.45"/>
      <circle class="cls-11" cx="131.27" cy="108.77" r=".66"/>
      <circle class="cls-11" cx="124.31" cy="122.79" r=".85"/>
      <circle class="cls-11" cx="127.06" cy="132.04" r="1.34"/>
      <circle class="cls-11" cx="137.59" cy="115.26" r="1.41"/>
      <circle class="cls-11" cx="138.88" cy="85.16" r="1.29"/>
      <circle class="cls-11" cx="397.73" cy="106.4" r="1.91"/>
      <circle class="cls-11" cx="388.68" cy="100.46" r=".52"/>
      <circle class="cls-11" cx="376.57" cy="102.22" r=".66"/>
      <circle class="cls-11" cx="371.84" cy="108.11" r="1.05"/>
      <circle class="cls-11" cx="387.32" cy="107.41" r="1.1"/>
      <circle class="cls-11" cx="407.26" cy="94.84" r="1.01"/>
      <rect class="cls-36" x="152.25" y="72.65" width="12.8" height="3.54" rx="1.77" ry="1.77"/>
      <path class="cls-36" d="M196,25.66h9.26c.98,0,1.77,.79,1.77,1.77h0c0,.98-.79,1.77-1.77,1.77h-9.26c-.98,0-1.77-.79-1.77-1.77h0c0-.98,.79-1.77,1.77-1.77Z"/>
      <rect class="cls-36" x="264.61" y="73.76" width="12.8" height="3.54" rx="1.77" ry="1.77"/>
      <path class="cls-36" d="M248.48,23.66h9.26c.98,0,1.77,.79,1.77,1.77h0c0,.98-.79,1.77-1.77,1.77h-9.26c-.98,0-1.77-.79-1.77-1.77h0c0-.98,.79-1.77,1.77-1.77Z"/>
      <path class="cls-36" d="M307.42,25.43h9.26c.98,0,1.77,.79,1.77,1.77h0c0,.98-.79,1.77-1.77,1.77h-9.26c-.98,0-1.77-.79-1.77-1.77h0c0-.98,.79-1.77,1.77-1.77Z"/>
      <rect class="cls-36" x="197.81" y="73.76" width="12.8" height="3.54" rx="1.77" ry="1.77"/>
      <rect class="cls-34" x="159.74" y="88.9" width="10.64" height="2.62" rx="1.31" ry="1.31"/>
      <rect class="cls-34" x="170.84" y="92.76" width="10.64" height="2.62" rx="1.31" ry="1.31"/>
      <rect class="cls-34" x="265.69" y="91.54" width="10.64" height="2.62" rx="1.31" ry="1.31"/>
      <rect class="cls-24" x="312.05" y="88.47" width="10.64" height="2.62" rx="1.31" ry="1.31"/>
      <rect class="cls-24" x="336.3" y="79.01" width="10.64" height="2.62" rx="1.31" ry="1.31"/>
      <path class="cls-24" d="M344.84,172.08h8.02c.72,0,1.31,.59,1.31,1.31h0c0,.72-.59,1.31-1.31,1.31h-8.02c-.72,0-1.31-.59-1.31-1.31h0c0-.72,.59-1.31,1.31-1.31Z"/>
      <path class="cls-24" d="M302.88,165.88h8.02c.72,0,1.31,.59,1.31,1.31h0c0,.72-.59,1.31-1.31,1.31h-8.02c-.72,0-1.31-.59-1.31-1.31h0c0-.72,.59-1.31,1.31-1.31Z"/>
      <path class="cls-24" d="M315.07,172.11h8.02c.72,0,1.31,.59,1.31,1.31h0c0,.72-.59,1.31-1.31,1.31h-8.02c-.72,0-1.31-.59-1.31-1.31h0c0-.72,.59-1.31,1.31-1.31Z"/>
      <rect class="cls-24" x="352.54" y="87.59" width="10.64" height="2.62" rx="1.31" ry="1.31"/>
      <path class="cls-31" d="M153.66,181.78h8.02c.72,0,1.31,.59,1.31,1.31h0c0,.72-.59,1.31-1.31,1.31h-8.02c-.72,0-1.31-.59-1.31-1.31h0c0-.72,.59-1.31,1.31-1.31Z"/>
      <rect class="cls-31" x="184.42" y="183.78" width="9.33" height="2.3" rx="1.15" ry="1.15"/>
      <rect class="cls-31" x="220.22" y="182.64" width="9.33" height="2.3" rx="1.15" ry="1.15"/>
      <rect class="cls-31" x="243.86" y="181.95" width="9.33" height="2.3" rx="1.15" ry="1.15"/>
      <rect class="cls-31" x="269.88" y="183.78" width="9.33" height="2.3" rx="1.15" ry="1.15"/>
      <path class="cls-34" d="M261.68,172.08h8.02c.72,0,1.31,.59,1.31,1.31h0c0,.72-.59,1.31-1.31,1.31h-8.02c-.72,0-1.31-.59-1.31-1.31h0c0-.72,.59-1.31,1.31-1.31Z"/>
      <rect class="cls-34" x="154.42" y="138.15" width="7.59" height="1.87" rx=".93" ry=".93"/>
      <rect class="cls-34" x="157.67" y="140.01" width="7.59" height="1.87" rx=".93" ry=".93"/>
      <rect class="cls-34" x="154.42" y="141.88" width="7.59" height="1.87" rx=".93" ry=".93"/>
      <rect class="cls-34" x="169.29" y="171.55" width="7.59" height="1.87" rx=".93" ry=".93"/>
      <rect class="cls-34" x="166.04" y="173.42" width="7.59" height="1.87" rx=".93" ry=".93"/>
      <rect class="cls-34" x="169.29" y="175.29" width="7.59" height="1.87" rx=".93" ry=".93"/>
      <g class="cls-45">
        <rect class="cls-34" x="242.58" y="107.96" width="7.59" height="1.87" rx=".93" ry=".93"/>
        <rect class="cls-34" x="239.34" y="109.83" width="7.59" height="1.87" rx=".93" ry=".93"/>
        <rect class="cls-34" x="242.58" y="111.71" width="7.59" height="1.87" rx=".93" ry=".93"/>
      </g>
      <g class="cls-45">
        <rect class="cls-34" x="283.81" y="132.03" width="7.59" height="1.87" rx=".93" ry=".93"/>
        <rect class="cls-34" x="280.56" y="133.91" width="7.59" height="1.87" rx=".93" ry=".93"/>
        <rect class="cls-34" x="283.81" y="135.77" width="7.59" height="1.87" rx=".93" ry=".93"/>
      </g>
      <rect class="cls-37" x="166.91" y="67.15" width="32.18" height="2.91"/>
      <rect class="cls-36" x="166.91" y="65.55" width="32.18" height="1.6"/>
      <rect class="cls-37" x="209.2" y="67.15" width="32.18" height="2.91"/>
      <rect class="cls-36" x="209.2" y="65.55" width="32.18" height="1.6"/>
      <rect class="cls-37" x="251.92" y="67.15" width="32.18" height="2.91"/>
      <rect class="cls-36" x="251.92" y="65.55" width="32.18" height="1.6"/>
      <rect class="cls-13" x="306.9" y="97.56" width="20.95" height="29"/>
      <rect class="cls-8" x="309.06" y="99.48" width="16.85" height="25.15"/>
      <polygon class="cls-9" points="314.23 124.63 309.86 124.63 315.19 99.48 319.7 99.48 314.23 124.63"/>
      <polygon class="cls-9" points="317.45 124.63 316.07 124.63 321.4 99.48 322.92 99.48 317.45 124.63"/>
      <rect class="cls-13" x="79.04" y="114.21" width="12.47" height="17.26"/>
      <rect class="cls-8" x="80.33" y="115.36" width="10.03" height="14.97"/>
      <polygon class="cls-9" points="83.41 130.33 80.8 130.33 83.97 115.36 86.66 115.36 83.41 130.33"/>
      <polygon class="cls-9" points="85.32 130.33 84.5 130.33 87.67 115.36 88.58 115.36 85.32 130.33"/>
      <rect class="cls-13" x="96.92" y="114.21" width="12.47" height="17.26"/>
      <rect class="cls-8" x="98.21" y="115.36" width="10.03" height="14.97"/>
      <polygon class="cls-9" points="101.29 130.33 98.68 130.33 101.85 115.36 104.54 115.36 101.29 130.33"/>
      <polygon class="cls-9" points="103.2 130.33 102.38 130.33 105.55 115.36 106.46 115.36 103.2 130.33"/>
      <rect class="cls-13" x="79.04" y="136.02" width="12.47" height="17.26"/>
      <rect class="cls-8" x="80.33" y="137.17" width="10.03" height="14.97"/>
      <polygon class="cls-9" points="83.41 152.14 80.8 152.14 83.97 137.17 86.66 137.17 83.41 152.14"/>
      <polygon class="cls-9" points="85.32 152.14 84.5 152.14 87.67 137.17 88.58 137.17 85.32 152.14"/>
      <rect class="cls-13" x="96.92" y="136.02" width="12.47" height="17.26"/>
      <rect class="cls-8" x="98.21" y="137.17" width="10.03" height="14.97"/>
      <polygon class="cls-9" points="101.29 152.14 98.68 152.14 101.85 137.17 104.54 137.17 101.29 152.14"/>
      <polygon class="cls-9" points="103.2 152.14 102.38 152.14 105.55 137.17 106.46 137.17 103.2 152.14"/>
      <rect class="cls-13" x="337.96" y="97.56" width="20.95" height="29"/>
      <rect class="cls-8" x="340.01" y="99.48" width="16.85" height="25.15"/>
      <rect class="cls-13" x="329.28" y="59.8" width="8.45" height="13.09"/>
      <rect class="cls-8" x="330.11" y="60.67" width="6.8" height="11.36"/>
      <polygon class="cls-9" points="333.91 72.03 332.11 72.03 334.11 60.67 335.91 60.67 333.91 72.03"/>
      <rect class="cls-13" x="337.96" y="134.84" width="20.95" height="29"/>
      <rect class="cls-8" x="340.01" y="136.74" width="16.85" height="25.15"/>
      <rect class="cls-8" x="309.06" y="137.01" width="16.85" height="25.15"/>
      <rect class="cls-6" x="184.38" y="44.11" width=".5" height="17.6"/>
      <rect class="cls-6" x="179.47" y="48.8" width="10.44" height=".5"/>
      <rect class="cls-6" x="179.47" y="54.04" width="10.44" height=".5"/>
      <rect class="cls-6" x="179.47" y="59.29" width="10.44" height=".5"/>
      <rect class="cls-6" x="226.55" y="44.11" width=".5" height="17.6"/>
      <rect class="cls-6" x="221.63" y="48.8" width="10.44" height=".5"/>
      <rect class="cls-6" x="221.63" y="54.04" width="10.44" height=".5"/>
      <rect class="cls-6" x="221.63" y="59.29" width="10.44" height=".5"/>
      <rect class="cls-6" x="268.76" y="44.11" width=".5" height="17.6"/>
      <rect class="cls-6" x="263.85" y="48.8" width="10.44" height=".5"/>
      <rect class="cls-6" x="263.85" y="54.04" width="10.44" height=".5"/>
      <rect class="cls-6" x="263.85" y="59.29" width="10.44" height=".5"/>
      <path class="cls-7" d="M190.8,49.05v13.65h-12.33l10.23-18.27c.11,.08,.21,.17,.3,.27,1.16,1.15,1.8,2.72,1.8,4.35Z"/>
      <path class="cls-7" d="M233,49.05v13.65h-12.32l10.23-18.17c.1,.08,.2,.17,.29,.26,1.13,1.13,1.78,2.66,1.8,4.26Z"/>
      <path class="cls-7" d="M275.23,49.05v13.65h-12.33l10.23-18.17c.1,.08,.2,.17,.29,.26,1.14,1.13,1.79,2.66,1.81,4.26Z"/>
      <polygon class="cls-24" points="363.05 82.87 332.99 35.2 305.4 82.76 299.35 79.25 332.75 21.68 368.97 79.14 363.05 82.87"/>
      <polygon class="cls-36" points="329.28 21 294.64 81 302.38 81 336.11 21 329.28 21"/>
      <polygon class="cls-36" points="336.11 21 373.75 81 366.01 81 329.28 21 336.11 21"/>
      <rect class="cls-30" x="292.78" y="86.72" width="4.24" height="87.64"/>
      <path class="cls-22" d="M305.39,178.38h-5.57c-3.27,0-5.92-2.66-5.93-5.93v-4.12h2v4.12c0,2.17,1.76,3.92,3.93,3.93h5.57v2Z"/>
      <path class="cls-3" d="M293.64,157.59c-.41,0-.75-.34-.75-.75v-5.94c0-.41,.34-.75,.75-.75s.75,.34,.75,.75v5.94c0,.41-.34,.74-.75,.75Z"/>
      <path class="cls-23" d="M296.07,165.84c-.55,0-1-.45-1-1v-4.95c0-.55,.45-1,1-1s1,.45,1,1v4.95c0,.55-.45,1-1,1Z"/>
      <path class="cls-3" d="M296.3,125.38c-.41,0-.74-.34-.75-.75v-5.93c0-.41,.34-.75,.75-.75s.75,.34,.75,.75v5.94c0,.41-.34,.74-.75,.74Z"/>
      <path class="cls-2" d="M293.64,100.85c-.41,0-.75-.34-.75-.75v-6c0-.41,.34-.75,.75-.75s.75,.34,.75,.75v6c0,.41-.34,.74-.75,.75Z"/>
      <path class="cls-2" d="M293.64,135.76c-.41,0-.75-.34-.75-.75v-5.95c0-.41,.34-.75,.75-.75s.75,.34,.75,.75v5.95c0,.41-.34,.74-.75,.75Z"/>
      <polygon class="cls-10" points="146.43 170.37 146.18 170.36 146.45 163.81 146.7 163.82 146.43 170.37"/>
      <polygon class="cls-10" points="147.12 174.84 146.87 174.83 147.13 168.28 147.38 168.29 147.12 174.84"/>
      <polygon class="cls-10" points="146.85 158.21 146.6 158.2 146.87 151.65 147.12 151.66 146.85 158.21"/>
      <rect class="cls-10" x="148.89" y="171.56" width=".25" height="4.07"/>
      <rect class="cls-10" x="148.89" y="157.44" width=".25" height="4.07"/>
      <polygon class="cls-10" points="145.48 178.17 145.23 178.16 145.37 174.35 145.62 174.36 145.48 178.17"/>
      <path class="cls-11" d="M393.86,75.22h-14.57c-.55,0-1-.45-1-1s.45-1,1-1h14.57c.55,0,1,.45,1,1s-.45,1-1,1h0Z"/>
      <rect class="cls-10" x="387.3" y="134.9" width=".25" height="4.31"/>
      <rect class="cls-10" x="378.84" y="145.71" width=".25" height="4.31"/>
      <rect class="cls-10" x="386.12" y="128.54" width=".25" height="4.31"/>
      <rect class="cls-10" x="381.73" y="117.21" width=".25" height="4.31"/>
      <rect class="cls-10" x="385.69" y="133.92" width=".25" height="1.83"/>
      <rect class="cls-10" x="386.21" y="136.91" width=".25" height="4.31"/>
      <rect class="cls-10" x="382.44" y="119.69" width=".25" height="1.83"/>
      <rect class="cls-10" x="382.97" y="122.67" width=".25" height="4.31"/>
      <rect class="cls-10" x="376.84" y="148.18" width=".25" height="1.83"/>
      <rect class="cls-10" x="377.37" y="151.17" width=".25" height="4.31"/>
      <rect class="cls-10" x="380.26" y="115.11" width="4" height="2.1"/>
      <path class="cls-40" d="M381.86,176.44h0c.84,0,1.52,.68,1.52,1.52v9.59h-3v-9.59c0-.82,.66-1.5,1.48-1.52Z"/>
      <path class="cls-42" d="M372.78,169.18h0c.84,0,1.52,.68,1.52,1.52v9.59h-3v-9.59c0-.84,.68-1.52,1.52-1.52h-.04Z"/>
      <path class="cls-40" d="M386.73,169.47h0c1.36,0,2.47,1.11,2.47,2.47h0v15.6h-4.94v-15.6c0-1.36,1.11-2.47,2.47-2.47h0Z"/>
      <path class="cls-40" d="M392.9,176.44h0c.84,0,1.52,.68,1.52,1.52v9.59h-3v-9.59c0-.84,.68-1.52,1.52-1.52h-.04Z"/>
      <path class="cls-42" d="M389,177.96h0c.72,0,1.31,.59,1.31,1.31v8.28h-2.62v-8.28c0-.72,.59-1.31,1.31-1.31Z"/>
      <path class="cls-42" d="M380.34,177.96h0c.72,0,1.31,.59,1.31,1.31v8.28h-2.65v-8.28c0-.72,.59-1.31,1.31-1.31h.03Z"/>
      <path class="cls-40" d="M390.55,152.62h0c.68,.32,.98,1.14,.65,1.82l-3.68,7.79h0l-2.5-1.18h0l3.68-7.79c.32-.68,1.14-.98,1.82-.65h.02Z"/>
      <path class="cls-40" d="M391.98,157.56h0c.42,.2,.6,.7,.4,1.12l-2.26,4.79h0l-1.52-.72h0l2.26-4.79c.2-.42,.7-.6,1.12-.4Z"/>
      <path class="cls-42" d="M389.67,157.39h0c.36,.17,.51,.6,.34,.96h0l-1.95,4.13h0l-1.3-.61h0l1.95-4.13c.17-.36,.6-.51,.96-.34h0Z"/>
      <path class="cls-42" d="M385.35,155.35h0c.36,.17,.51,.6,.34,.96h0l-1.95,4.13h0l-1.31-.62h0l1.95-4.13c.17-.36,.6-.51,.96-.34,0,0,0,0,0,0Z"/>
      <path class="cls-40" d="M399.76,123.62c1.69,1.87,1,5.22,1,5.22,0,0-3.4,.32-5.09-1.55s-1-5.22-1-5.22c0,0,3.4-.32,5.09,1.55Z"/>
      <path class="cls-32" d="M379.53,120.21c1.69,1.87,1,5.22,1,5.22,0,0-3.4,.32-5.09-1.54s-1-5.22-1-5.22c0,0,3.4-.33,5.09,1.54Z"/>
      <path class="cls-40" d="M419.89,117.07c1.18,1.32,.71,3.69,.71,3.69,0,0-2.4,.22-3.59-1.09s-.71-3.69-.71-3.69c0,0,2.4-.22,3.59,1.09Z"/>
      <path class="cls-32" d="M413.23,125.41c-.9,1.53-3.29,1.8-3.29,1.8,0,0-.94-2.22-.05-3.76s3.3-1.79,3.3-1.79c0,0,.94,2.22,.04,3.75Z"/>
      <path class="cls-32" d="M407.91,143.78c-.89,1.54-3.29,1.8-3.29,1.8,0,0-.94-2.22,0-3.75s3.29-1.8,3.29-1.8c0,0,.9,2.22,0,3.75Z"/>
      <path class="cls-32" d="M417.87,144.97c-.9,1.53-3.29,1.79-3.29,1.79,0,0-.94-2.22,0-3.75s3.29-1.8,3.29-1.8c0,0,.9,2.22,0,3.76Z"/>
      <path class="cls-11" d="M407.06,136.76c-1.61,.75-3.73-.4-3.73-.4,0,0,.49-2.36,2.11-3.11s3.73,.41,3.73,.41c0,0-.5,2.36-2.11,3.1Z"/>
      <path class="cls-11" d="M401.72,149.62c-1.61,.74-3.73-.41-3.73-.41,0,0,.5-2.36,2.11-3.1s3.73,.4,3.73,.4c0,0-.5,2.36-2.11,3.11Z"/>
      <path class="cls-32" d="M16.46,186.73H455.58c4.58,0,8.3,3.72,8.3,8.3h0c0,4.58-3.72,8.3-8.3,8.3H16.46c-4.58,0-8.3-3.72-8.3-8.3h0c0-4.58,3.72-8.3,8.3-8.3Z"/>
      <rect class="cls-11" x="242.86" y="190.18" width="19.07" height="3.47" rx="1.73" ry="1.73"/>
      <rect class="cls-11" x="350.82" y="189.57" width="19.07" height="3.47" rx="1.73" ry="1.73"/>
      <rect class="cls-11" x="297.73" y="185.43" width="19.07" height="3.47" rx="1.73" ry="1.73"/>
      <rect class="cls-32" x="318.06" y="201.25" width="19.07" height="3.47" rx="1.73" ry="1.73"/>
      <rect class="cls-11" x="25.05" y="193.65" width="13.68" height="2.49" rx="1.24" ry="1.24"/>
      <rect class="cls-11" x="60.34" y="192.14" width="13.68" height="2.49" rx="1.24" ry="1.24"/>
      <path class="cls-12" d="M97.43,196.9h8.96c.55,0,1,.45,1,.99h0c0,.55-.45,1-1,1h-8.96c-.55,0-1-.45-1-.99h0c0-.55,.45-1,1-1Z"/>
      <rect class="cls-11" x="145.33" y="193.65" width="13.68" height="2.49" rx="1.24" ry="1.24"/>
      <rect class="cls-11" x="180.62" y="192.14" width="13.68" height="2.49" rx="1.24" ry="1.24"/>
      <path class="cls-12" d="M161.57,197.81h8.96c.55,0,1,.45,1,.99h0c0,.55-.45,1-1,1h-8.96c-.55,0-1-.45-1-.99h0c0-.55,.45-1,1-1Z"/>
      <path class="cls-12" d="M196.74,196.64h8.96c.55,0,1,.45,1,.99h0c0,.55-.45,1-1,1h-8.96c-.55,0-1-.45-1-.99h0c0-.55,.45-1,1-1Z"/>
      <path class="cls-12" d="M219.02,193.6h8.96c.55,0,1,.45,1,.99h0c0,.55-.45,1-1,1h-8.96c-.55,0-1-.45-1-.99h0c0-.55,.45-1,1-1Z"/>
      <circle class="cls-19" cx="411.09" cy="178.14" r=".53"/>
      <circle class="cls-19" cx="412.55" cy="173.22" r=".6"/>
      <circle class="cls-19" cx="408.43" cy="164.58" r=".6"/>
      <circle class="cls-19" cx="408.27" cy="171.53" r=".9"/>
      <circle class="cls-19" cx="410.33" cy="174.65" r=".56"/>
      <circle class="cls-19" cx="412.29" cy="176.41" r=".4"/>
      <circle class="cls-19" cx="413.88" cy="177.61" r=".47"/>
      <circle class="cls-11" cx="372.27" cy="161.94" r=".53"/>
      <circle class="cls-11" cx="373.73" cy="157.03" r=".6"/>
      <circle class="cls-11" cx="369.61" cy="148.39" r=".6"/>
      <circle class="cls-11" cx="369.44" cy="155.33" r=".9"/>
      <circle class="cls-11" cx="371.5" cy="158.46" r=".56"/>
      <circle class="cls-11" cx="373.46" cy="160.22" r=".4"/>
      <circle class="cls-11" cx="375.06" cy="161.41" r=".47"/>
      <circle class="cls-11" cx="429.82" cy="203.45" r=".53"/>
      <circle class="cls-11" cx="431.28" cy="198.54" r=".6"/>
      <circle class="cls-11" cx="427.16" cy="189.9" r=".6"/>
      <circle class="cls-11" cx="427" cy="196.84" r=".9"/>
      <circle class="cls-11" cx="429.06" cy="199.97" r=".56"/>
      <circle class="cls-11" cx="431.02" cy="201.73" r=".4"/>
      <circle class="cls-11" cx="432.61" cy="202.92" r=".47"/>
      <rect class="cls-34" x="366.45" y="93.43" width="10.33" height="2.75"/>
      <rect class="cls-34" x="364.13" y="98.9" width="7.84" height="2.75"/>
      <rect class="cls-24" x="367.62" y="96.18" width="5.84" height="2.75"/>
      <rect class="cls-34" x="146.49" y="105.95" width="10.33" height="2.75"/>
      <rect class="cls-34" x="151.31" y="111.47" width="7.84" height="2.75"/>
      <rect class="cls-18" x="149.81" y="108.71" width="5.84" height="2.75"/>
      <rect class="cls-34" x="363.23" y="162.14" width="10.33" height="2.75"/>
      <rect class="cls-34" x="360.9" y="167.61" width="7.84" height="2.75"/>
      <rect class="cls-24" x="364.4" y="164.9" width="5.84" height="2.75"/>
      <rect class="cls-13" x="90.61" y="91.74" width="8.45" height="13.09"/>
      <rect class="cls-8" x="91.43" y="92.61" width="6.8" height="11.36"/>
      <polygon class="cls-9" points="95.23 103.97 93.43 103.97 95.43 92.61 97.23 92.61 95.23 103.97"/>
      <circle class="cls-17" cx="71.69" cy="54.46" r="2.82"/>
      <rect class="cls-40" x="400.13" y="201.25" width="19.07" height="3.47" rx="1.73" ry="1.73"/>
      <rect class="cls-40" x="433.26" y="201.62" width="19.07" height="3.47" rx="1.73" ry="1.73"/>
      <polygon class="cls-9" points="346.05 124.63 341.67 124.63 347 99.48 351.52 99.48 346.05 124.63"/>
      <polygon class="cls-9" points="349.26 124.63 347.88 124.63 353.21 99.48 354.73 99.48 349.26 124.63"/>
      <polygon class="cls-9" points="314.61 162.28 310.23 162.28 315.56 137.13 320.08 137.13 314.61 162.28"/>
      <polygon class="cls-9" points="317.82 162.28 316.45 162.28 321.77 137.13 323.29 137.13 317.82 162.28"/>
      <polygon class="cls-9" points="346.7 161.92 342.33 161.92 347.66 136.77 352.18 136.77 346.7 161.92"/>
      <polygon class="cls-9" points="349.92 161.92 348.54 161.92 353.87 136.77 355.39 136.77 349.92 161.92"/>
      <g>
        <path class="cls-34" d="M217.77,92.89c-23.82,1.02-42.41,21.27-41.39,45.13,1.02,23.84,21.27,42.41,45.08,41.39,1.92-.08,3.78-.27,5.59-.64,19.2-3.3,33.9-19.21,35.67-38.56,.21-1.93,.26-3.89,.18-5.88-1.02-23.86-21.27-42.46-45.13-41.44Zm-37.02,44.94c-.24-5.63,.75-11.05,2.7-15.96l20.71,50.02c-13.25-5.76-22.76-18.69-23.42-34.06Zm45.56,36.7c-1.64,.27-3.32,.46-5.03,.53-3.81,.16-7.5-.24-11.02-1.13l3.71-12.57h.02s6.45-21.83,6.45-21.83l13.36,32.25c.1,.18,.22,.35,.32,.51-2.49,1.01-5.09,1.75-7.8,2.25Zm-2.09-56.84c2.34-.21,4.42-.55,4.42-.55,2.11-.32,1.71-3.41-.38-3.19,0,0-6.29,.76-10.34,.94-3.81,.16-10.27-.06-10.27-.06-2.08-.05-2.21,3.19-.09,3.21,0,0,1.97,.16,4.09,.19l6.77,16.35-7.43,25.89-15.97-41.53c2.36-.21,4.45-.55,4.45-.55,2.06-.31,1.71-3.41-.38-3.19,0,0-6.27,.76-10.34,.94-.74,.03-1.6,.05-2.5,.06,6.49-10.84,18.16-18.31,31.72-18.89,10.14-.43,19.52,3.05,26.71,9.06-.18,0-.34,0-.52,0-3.83,.16-6.39,3.61-6.24,7.2,.14,3.2,2.1,5.82,4.2,8.94,1.6,2.53,3.47,5.79,3.68,10.59,.14,3.33-.67,7.57-2.42,12.68l-3.34,13.14-15.8-41.22Zm16.39,51.26l2.71-9.08,7.7-25.79c1.99-5.64,2.53-10.11,2.36-14.05-.06-1.42-.21-2.77-.42-4,3.28,5.41,5.28,11.69,5.57,18.48,.08,1.8,.04,3.56-.11,5.31-1.15,12.17-7.94,22.82-17.81,29.13Z"/>
        <ellipse class="cls-44" cx="219.64" cy="136.2" rx="43.12" ry="43.67" transform="translate(53.46 334.12) rotate(-81.79)"/>
      </g>
    </g>
  </g>
</svg>